<svg xmlns="http://www.w3.org/2000/svg" xmlns:xlink="http://www.w3.org/1999/xlink" width="500" zoomAndPan="magnify" viewBox="0 0 375 374.999991" height="500" preserveAspectRatio="xMidYMid meet" version="1.0"><defs><g/><clipPath id="16273ee2d5"><path d="M 159 174 L 215 174 L 215 207.992188 L 159 207.992188 Z M 159 174 " clip-rule="nonzero"/></clipPath><clipPath id="7f06a0d838"><path d="M 179 192 L 195 192 L 195 207.992188 L 179 207.992188 Z M 179 192 " clip-rule="nonzero"/></clipPath><clipPath id="cb24cf4c60"><path d="M 160 95.492188 L 215 95.492188 L 215 130 L 160 130 Z M 160 95.492188 " clip-rule="nonzero"/></clipPath><clipPath id="6e081b4900"><path d="M 179 95.492188 L 196 95.492188 L 196 112 L 179 112 Z M 179 95.492188 " clip-rule="nonzero"/></clipPath></defs><rect x="-37.5" width="450" fill="#ffffff" y="-37.499999" height="449.999989" fill-opacity="1"/><rect x="-37.5" width="450" fill="#ffffff" y="-37.499999" height="449.999989" fill-opacity="1"/><rect x="-37.5" width="450" fill="#ffffff" y="-37.499999" height="449.999989" fill-opacity="1"/><path fill="#672072" d="M 218.078125 134.410156 C 214.664062 128.496094 225.144531 108.023438 225.144531 108.023438 C 225.460938 106.851562 225.292969 105.601562 224.6875 104.546875 C 222.648438 101.011719 217.351562 101.710938 216.296875 105.652344 C 216.296875 105.652344 202.300781 132.992188 206.859375 140.890625 C 211.417969 148.789062 242.082031 150.332031 242.082031 150.332031 C 246.023438 151.386719 249.273438 147.152344 247.234375 143.617188 C 246.625 142.5625 245.625 141.796875 244.453125 141.480469 C 244.453125 141.480469 221.492188 140.324219 218.078125 134.410156 " fill-opacity="1" fill-rule="nonzero"/><path fill="#672072" d="M 233.390625 134.636719 C 229.636719 136.804688 224.835938 135.515625 222.667969 131.761719 C 220.5 128.003906 221.785156 123.199219 225.539062 121.03125 C 229.296875 118.863281 234.097656 120.148438 236.265625 123.90625 C 238.433594 127.664062 237.144531 132.464844 233.390625 134.636719 " fill-opacity="1" fill-rule="nonzero"/><path fill="#912a99" d="M 217.742188 169.652344 C 221.15625 163.738281 244.121094 162.582031 244.121094 162.582031 C 245.292969 162.265625 246.292969 161.5 246.902344 160.445312 C 248.941406 156.910156 245.691406 152.671875 241.75 153.730469 C 241.75 153.730469 211.082031 155.273438 206.523438 163.171875 C 201.964844 171.070312 215.960938 198.410156 215.960938 198.410156 C 217.019531 202.351562 222.3125 203.050781 224.351562 199.515625 C 224.960938 198.460938 225.125 197.210938 224.808594 196.039062 C 224.808594 196.039062 214.328125 175.566406 217.742188 169.652344 " fill-opacity="1" fill-rule="nonzero"/><path fill="#912a99" d="M 225.207031 183.03125 C 221.449219 180.863281 220.164062 176.058594 222.332031 172.300781 C 224.5 168.546875 229.300781 167.257812 233.058594 169.429688 C 236.8125 171.597656 238.097656 176.398438 235.929688 180.15625 C 233.761719 183.914062 228.960938 185.199219 225.207031 183.03125 " fill-opacity="1" fill-rule="nonzero"/><g clip-path="url(#16273ee2d5)"><path fill="#ab46a9" d="M 187.066406 186.984375 C 193.894531 186.984375 206.375 206.296875 206.375 206.296875 C 207.234375 207.160156 208.398438 207.640625 209.613281 207.640625 C 213.695312 207.640625 215.738281 202.703125 212.851562 199.820312 C 212.851562 199.820312 196.183594 174.023438 187.066406 174.023438 C 177.949219 174.023438 161.28125 199.820312 161.28125 199.820312 C 158.394531 202.703125 160.4375 207.640625 164.519531 207.640625 C 165.734375 207.640625 166.898438 207.160156 167.757812 206.296875 C 167.757812 206.296875 180.238281 186.984375 187.066406 186.984375 " fill-opacity="1" fill-rule="nonzero"/></g><g clip-path="url(#7f06a0d838)"><path fill="#ab46a9" d="M 179.214844 200.136719 C 179.214844 195.800781 182.730469 192.285156 187.066406 192.285156 C 191.402344 192.285156 194.917969 195.800781 194.917969 200.136719 C 194.917969 204.476562 191.402344 207.992188 187.066406 207.992188 C 182.730469 207.992188 179.214844 204.476562 179.214844 200.136719 " fill-opacity="1" fill-rule="nonzero"/></g><path fill="#f09c10" d="M 156.722656 169.074219 C 160.136719 174.988281 149.65625 195.457031 149.65625 195.457031 C 149.34375 196.632812 149.507812 197.882812 150.113281 198.933594 C 152.15625 202.46875 157.449219 201.773438 158.503906 197.832031 C 158.503906 197.832031 172.503906 170.492188 167.945312 162.59375 C 163.386719 154.695312 132.71875 153.152344 132.71875 153.152344 C 128.777344 152.09375 125.527344 156.332031 127.566406 159.867188 C 128.175781 160.917969 129.175781 161.6875 130.347656 162.003906 C 130.347656 162.003906 153.308594 163.15625 156.722656 169.074219 " fill-opacity="1" fill-rule="nonzero"/><path fill="#f09c10" d="M 141.410156 168.847656 C 145.164062 166.679688 149.964844 167.96875 152.136719 171.722656 C 154.304688 175.480469 153.015625 180.28125 149.261719 182.453125 C 145.507812 184.621094 140.703125 183.332031 138.535156 179.578125 C 136.367188 175.820312 137.65625 171.015625 141.410156 168.847656 " fill-opacity="1" fill-rule="nonzero"/><path fill="#f18314" d="M 157.058594 133.832031 C 153.644531 139.746094 130.679688 140.902344 130.679688 140.902344 C 129.507812 141.21875 128.507812 141.984375 127.902344 143.039062 C 125.859375 146.570312 129.109375 150.808594 133.050781 149.753906 C 133.050781 149.753906 163.71875 148.210938 168.277344 140.3125 C 172.835938 132.414062 158.839844 105.074219 158.839844 105.074219 C 157.78125 101.132812 152.488281 100.433594 150.449219 103.96875 C 149.839844 105.019531 149.675781 106.273438 149.992188 107.445312 C 149.992188 107.445312 160.472656 127.917969 157.058594 133.832031 " fill-opacity="1" fill-rule="nonzero"/><path fill="#f18314" d="M 149.59375 120.453125 C 153.351562 122.621094 154.636719 127.425781 152.46875 131.179688 C 150.300781 134.9375 145.5 136.222656 141.742188 134.054688 C 137.988281 131.886719 136.703125 127.082031 138.871094 123.328125 C 141.039062 119.570312 145.839844 118.28125 149.59375 120.453125 " fill-opacity="1" fill-rule="nonzero"/><g clip-path="url(#cb24cf4c60)"><path fill="#f0402a" d="M 187.734375 116.5 C 180.90625 116.5 168.425781 97.1875 168.425781 97.1875 C 167.566406 96.324219 166.402344 95.84375 165.1875 95.84375 C 161.105469 95.84375 159.0625 100.777344 161.949219 103.664062 C 161.949219 103.664062 178.617188 129.460938 187.734375 129.460938 C 196.851562 129.460938 213.519531 103.664062 213.519531 103.664062 C 216.40625 100.777344 214.363281 95.84375 210.28125 95.84375 C 209.066406 95.84375 207.902344 96.324219 207.042969 97.1875 C 207.042969 97.1875 194.5625 116.5 187.734375 116.5 " fill-opacity="1" fill-rule="nonzero"/></g><g clip-path="url(#6e081b4900)"><path fill="#f0402a" d="M 195.585938 103.34375 C 195.585938 107.683594 192.070312 111.199219 187.734375 111.199219 C 183.398438 111.199219 179.882812 107.683594 179.882812 103.34375 C 179.882812 99.007812 183.398438 95.492188 187.734375 95.492188 C 192.070312 95.492188 195.585938 99.007812 195.585938 103.34375 " fill-opacity="1" fill-rule="nonzero"/></g><g fill="#737373" fill-opacity="1"><g transform="translate(105.670003, 251.872673)"><g><path d="M 20.527344 -23.867188 L 16.9375 -23.867188 C 16.285156 -23.867188 15.886719 -23.648438 15.886719 -22.8125 L 15.886719 -8.089844 C 15.886719 -5.804688 14.363281 -4.496094 11.96875 -4.496094 C 9.574219 -4.496094 8.089844 -5.804688 8.089844 -8.089844 L 8.089844 -22.8125 C 8.089844 -23.648438 7.6875 -23.867188 7.035156 -23.867188 L 3.445312 -23.867188 C 2.792969 -23.867188 2.394531 -23.648438 2.394531 -22.8125 L 2.394531 -7.289062 C 2.394531 -1.597656 7.652344 0.542969 11.96875 0.542969 C 16.285156 0.542969 21.582031 -1.597656 21.582031 -7.289062 L 21.582031 -22.8125 C 21.582031 -23.648438 21.183594 -23.867188 20.527344 -23.867188 Z M 20.527344 -23.867188 "/></g></g></g><g fill="#737373" fill-opacity="1"><g transform="translate(129.644172, 251.872673)"><g><path d="M 11.898438 -23.867188 L 3.734375 -23.867188 C 2.902344 -23.867188 2.683594 -23.464844 2.683594 -22.8125 L 2.683594 -1.050781 C 2.683594 -0.21875 3.082031 0 3.734375 0 L 7.328125 0 C 7.980469 0 8.378906 -0.21875 8.378906 -1.050781 L 8.378906 -7.074219 L 11.859375 -7.074219 C 18.0625 -7.074219 21.398438 -10.410156 21.398438 -15.449219 C 21.398438 -20.457031 18.136719 -23.867188 11.898438 -23.867188 Z M 11.859375 -11.96875 L 8.378906 -11.96875 L 8.378906 -18.75 L 11.859375 -18.75 C 14.6875 -18.75 15.921875 -17.226562 15.921875 -15.34375 C 15.921875 -13.527344 14.6875 -11.96875 11.859375 -11.96875 Z M 11.859375 -11.96875 "/></g></g></g><g fill="#737373" fill-opacity="1"><g transform="translate(152.421449, 251.872673)"><g><path d="M 21.109375 -23.867188 L 17.519531 -23.867188 C 16.867188 -23.867188 16.464844 -23.648438 16.464844 -22.8125 L 16.464844 -14.617188 L 8.378906 -14.617188 L 8.378906 -22.8125 C 8.378906 -23.648438 8.015625 -23.867188 7.328125 -23.867188 L 3.734375 -23.867188 C 3.082031 -23.867188 2.683594 -23.648438 2.683594 -22.8125 L 2.683594 -1.050781 C 2.683594 -0.21875 3.082031 0 3.734375 0 L 7.328125 0 C 8.015625 0 8.378906 -0.21875 8.378906 -1.050781 L 8.378906 -9.25 L 16.464844 -9.25 L 16.464844 -1.050781 C 16.464844 -0.21875 16.867188 0 17.519531 0 L 21.109375 0 C 21.761719 0 22.160156 -0.21875 22.160156 -1.050781 L 22.160156 -22.8125 C 22.160156 -23.648438 21.761719 -23.867188 21.109375 -23.867188 Z M 21.109375 -23.867188 "/></g></g></g><g fill="#737373" fill-opacity="1"><g transform="translate(177.26609, 251.872673)"><g><path d="M 21.4375 -7.652344 L 21.4375 -16.210938 C 21.4375 -21.941406 15.996094 -24.410156 11.679688 -24.410156 C 7.363281 -24.410156 1.996094 -21.941406 1.996094 -16.210938 L 1.996094 -7.652344 C 1.996094 -1.921875 7.363281 0.542969 11.679688 0.542969 C 15.996094 0.542969 21.4375 -1.921875 21.4375 -7.652344 Z M 15.742188 -15.703125 L 15.742188 -8.160156 C 15.742188 -5.839844 14.074219 -4.496094 11.679688 -4.496094 C 9.320312 -4.496094 7.652344 -5.839844 7.652344 -8.160156 L 7.652344 -15.703125 C 7.652344 -18.027344 9.320312 -19.367188 11.679688 -19.367188 C 14.074219 -19.367188 15.742188 -18.027344 15.742188 -15.703125 Z M 15.742188 -15.703125 "/></g></g></g><g fill="#737373" fill-opacity="1"><g transform="translate(200.659941, 251.872673)"><g><path d="M 20.527344 -23.867188 L 16.9375 -23.867188 C 16.285156 -23.867188 15.886719 -23.648438 15.886719 -22.8125 L 15.886719 -8.089844 C 15.886719 -5.804688 14.363281 -4.496094 11.96875 -4.496094 C 9.574219 -4.496094 8.089844 -5.804688 8.089844 -8.089844 L 8.089844 -22.8125 C 8.089844 -23.648438 7.6875 -23.867188 7.035156 -23.867188 L 3.445312 -23.867188 C 2.792969 -23.867188 2.394531 -23.648438 2.394531 -22.8125 L 2.394531 -7.289062 C 2.394531 -1.597656 7.652344 0.542969 11.96875 0.542969 C 16.285156 0.542969 21.582031 -1.597656 21.582031 -7.289062 L 21.582031 -22.8125 C 21.582031 -23.648438 21.183594 -23.867188 20.527344 -23.867188 Z M 20.527344 -23.867188 "/></g></g></g><g fill="#737373" fill-opacity="1"><g transform="translate(224.63411, 251.872673)"><g><path d="M 13.925781 -13.855469 C 12.476562 -14.433594 7.144531 -15.234375 7.144531 -17.445312 C 7.144531 -19.078125 9.140625 -19.550781 10.335938 -19.550781 C 11.425781 -19.550781 12.730469 -19.222656 13.417969 -18.570312 C 13.855469 -18.136719 14.035156 -17.84375 14.179688 -17.480469 C 14.363281 -17.011719 14.472656 -16.503906 15.160156 -16.503906 L 18.714844 -16.503906 C 19.550781 -16.503906 19.765625 -16.648438 19.765625 -17.519531 C 19.765625 -22.304688 14.726562 -24.410156 10.121094 -24.410156 C 5.585938 -24.226562 1.304688 -21.90625 1.304688 -17.191406 C 1.304688 -12.585938 4.679688 -11.136719 8.34375 -9.972656 C 11.425781 -8.996094 14.652344 -8.957031 14.652344 -6.925781 C 14.652344 -4.894531 13.058594 -4.460938 11.097656 -4.460938 C 9.757812 -4.460938 8.269531 -4.789062 7.542969 -5.65625 C 7.074219 -6.203125 6.890625 -6.671875 6.855469 -7.144531 C 6.78125 -8.050781 6.382812 -8.160156 5.550781 -8.160156 L 2.03125 -8.160156 C 1.195312 -8.160156 0.980469 -7.980469 0.980469 -7.144531 C 0.980469 -2.066406 6.203125 0.542969 10.734375 0.542969 C 16.320312 0.542969 20.382812 -1.921875 20.382812 -7.074219 C 20.382812 -12.003906 16.539062 -13.058594 13.925781 -13.855469 Z M 13.925781 -13.855469 "/></g></g></g><g fill="#737373" fill-opacity="1"><g transform="translate(246.577182, 251.872673)"><g><path d="M 19.984375 -5.078125 L 8.414062 -5.078125 L 8.414062 -9.867188 L 18.136719 -9.867188 C 18.96875 -9.867188 19.1875 -10.265625 19.1875 -10.917969 L 19.1875 -13.746094 C 19.1875 -14.398438 18.96875 -14.796875 18.136719 -14.796875 L 8.414062 -14.796875 L 8.414062 -18.75 L 19.367188 -18.75 C 20.203125 -18.75 20.421875 -19.152344 20.421875 -19.804688 L 20.421875 -22.8125 C 20.421875 -23.464844 20.203125 -23.867188 19.367188 -23.867188 L 3.734375 -23.867188 C 2.902344 -23.867188 2.683594 -23.464844 2.683594 -22.8125 L 2.683594 -1.050781 C 2.683594 -0.398438 2.902344 0 3.734375 0 L 19.984375 0 C 20.820312 0 21.035156 -0.398438 21.035156 -1.050781 L 21.035156 -4.027344 C 21.035156 -4.679688 20.820312 -5.078125 19.984375 -5.078125 Z M 19.984375 -5.078125 "/></g></g></g><g fill="#737373" fill-opacity="1"><g transform="translate(105.619187, 271.436641)"><g><path d="M 2.171875 0 L 1.171875 0 L 1.171875 -8.5625 L 5.953125 -8.5625 L 5.953125 -7.6875 L 2.171875 -7.6875 L 2.171875 -4.546875 L 5.71875 -4.546875 L 5.71875 -3.65625 L 2.171875 -3.65625 Z M 2.171875 0 "/></g></g></g><g fill="#737373" fill-opacity="1"><g transform="translate(115.232545, 271.436641)"><g><path d="M 6.5625 0 L 5.5 -2.71875 L 2.0625 -2.71875 L 1.015625 0 L 0 0 L 3.390625 -8.609375 L 4.21875 -8.609375 L 7.59375 0 Z M 5.1875 -3.625 L 4.1875 -6.28125 C 4.0625 -6.613281 3.929688 -7.023438 3.796875 -7.515625 C 3.703125 -7.140625 3.578125 -6.726562 3.421875 -6.28125 L 2.421875 -3.625 Z M 5.1875 -3.625 "/></g></g></g><g fill="#737373" fill-opacity="1"><g transform="translate(126.246294, 271.436641)"><g><path d="M 4.96875 0 L 2.0625 -7.59375 L 2.015625 -7.59375 C 2.066406 -6.988281 2.09375 -6.273438 2.09375 -5.453125 L 2.09375 0 L 1.171875 0 L 1.171875 -8.5625 L 2.671875 -8.5625 L 5.390625 -1.5 L 5.4375 -1.5 L 8.171875 -8.5625 L 9.65625 -8.5625 L 9.65625 0 L 8.671875 0 L 8.671875 -5.515625 C 8.671875 -6.148438 8.695312 -6.835938 8.75 -7.578125 L 8.703125 -7.578125 L 5.765625 0 Z M 4.96875 0 "/></g></g></g><g fill="#737373" fill-opacity="1"><g transform="translate(140.500278, 271.436641)"><g><path d="M 1.171875 0 L 1.171875 -8.5625 L 2.171875 -8.5625 L 2.171875 0 Z M 1.171875 0 "/></g></g></g><g fill="#737373" fill-opacity="1"><g transform="translate(147.265979, 271.436641)"><g><path d="M 1.171875 0 L 1.171875 -8.5625 L 2.171875 -8.5625 L 2.171875 -0.90625 L 5.953125 -0.90625 L 5.953125 0 Z M 1.171875 0 "/></g></g></g><g fill="#737373" fill-opacity="1"><g transform="translate(156.914493, 271.436641)"><g><path d="M 3.359375 -4.28125 L 5.640625 -8.5625 L 6.71875 -8.5625 L 3.859375 -3.328125 L 3.859375 0 L 2.859375 0 L 2.859375 -3.28125 L 0 -8.5625 L 1.09375 -8.5625 Z M 3.359375 -4.28125 "/></g></g></g><g fill="#737373" fill-opacity="1"><g transform="translate(167.055193, 271.436641)"><g/></g></g><g fill="#737373" fill-opacity="1"><g transform="translate(173.592378, 271.436641)"><g><path d="M 1.171875 -8.5625 L 3.59375 -8.5625 C 4.726562 -8.5625 5.550781 -8.390625 6.0625 -8.046875 C 6.570312 -7.710938 6.828125 -7.179688 6.828125 -6.453125 C 6.828125 -5.941406 6.6875 -5.519531 6.40625 -5.1875 C 6.125 -4.851562 5.707031 -4.640625 5.15625 -4.546875 L 5.15625 -4.484375 C 6.457031 -4.265625 7.109375 -3.582031 7.109375 -2.4375 C 7.109375 -1.675781 6.847656 -1.078125 6.328125 -0.640625 C 5.816406 -0.210938 5.097656 0 4.171875 0 L 1.171875 0 Z M 2.171875 -4.90625 L 3.8125 -4.90625 C 4.519531 -4.90625 5.023438 -5.015625 5.328125 -5.234375 C 5.640625 -5.453125 5.796875 -5.820312 5.796875 -6.34375 C 5.796875 -6.820312 5.625 -7.164062 5.28125 -7.375 C 4.9375 -7.59375 4.390625 -7.703125 3.640625 -7.703125 L 2.171875 -7.703125 Z M 2.171875 -4.0625 L 2.171875 -0.84375 L 3.96875 -0.84375 C 4.65625 -0.84375 5.171875 -0.976562 5.515625 -1.25 C 5.867188 -1.519531 6.046875 -1.941406 6.046875 -2.515625 C 6.046875 -3.046875 5.863281 -3.4375 5.5 -3.6875 C 5.144531 -3.9375 4.601562 -4.0625 3.875 -4.0625 Z M 2.171875 -4.0625 "/></g></g></g><g fill="#737373" fill-opacity="1"><g transform="translate(184.787767, 271.436641)"><g><path d="M 7.640625 -8.5625 L 7.640625 -3.03125 C 7.640625 -2.050781 7.34375 -1.28125 6.75 -0.71875 C 6.164062 -0.15625 5.359375 0.125 4.328125 0.125 C 3.296875 0.125 2.5 -0.15625 1.9375 -0.71875 C 1.375 -1.289062 1.09375 -2.066406 1.09375 -3.046875 L 1.09375 -8.5625 L 2.09375 -8.5625 L 2.09375 -2.984375 C 2.09375 -2.265625 2.285156 -1.710938 2.671875 -1.328125 C 3.066406 -0.941406 3.640625 -0.75 4.390625 -0.75 C 5.117188 -0.75 5.675781 -0.941406 6.0625 -1.328125 C 6.457031 -1.710938 6.65625 -2.265625 6.65625 -2.984375 L 6.65625 -8.5625 Z M 7.640625 -8.5625 "/></g></g></g><g fill="#737373" fill-opacity="1"><g transform="translate(196.944092, 271.436641)"><g><path d="M 8.015625 -4.359375 C 8.015625 -2.953125 7.628906 -1.875 6.859375 -1.125 C 6.097656 -0.375 4.992188 0 3.546875 0 L 1.171875 0 L 1.171875 -8.5625 L 3.796875 -8.5625 C 5.128906 -8.5625 6.164062 -8.191406 6.90625 -7.453125 C 7.644531 -6.722656 8.015625 -5.691406 8.015625 -4.359375 Z M 6.96875 -4.328125 C 6.96875 -5.441406 6.6875 -6.28125 6.125 -6.84375 C 5.5625 -7.414062 4.726562 -7.703125 3.625 -7.703125 L 2.171875 -7.703125 L 2.171875 -0.859375 L 3.390625 -0.859375 C 4.578125 -0.859375 5.46875 -1.148438 6.0625 -1.734375 C 6.664062 -2.316406 6.96875 -3.179688 6.96875 -4.328125 Z M 6.96875 -4.328125 "/></g></g></g><g fill="#737373" fill-opacity="1"><g transform="translate(209.112142, 271.436641)"><g><path d="M 4.953125 -4.484375 L 7.859375 -4.484375 L 7.859375 -0.328125 C 7.398438 -0.179688 6.9375 -0.0703125 6.46875 0 C 6 0.0820312 5.457031 0.125 4.84375 0.125 C 3.550781 0.125 2.539062 -0.257812 1.8125 -1.03125 C 1.09375 -1.8125 0.734375 -2.894531 0.734375 -4.28125 C 0.734375 -5.175781 0.910156 -5.957031 1.265625 -6.625 C 1.628906 -7.289062 2.144531 -7.800781 2.8125 -8.15625 C 3.488281 -8.507812 4.273438 -8.6875 5.171875 -8.6875 C 6.085938 -8.6875 6.941406 -8.519531 7.734375 -8.1875 L 7.34375 -7.3125 C 6.570312 -7.632812 5.828125 -7.796875 5.109375 -7.796875 C 4.066406 -7.796875 3.25 -7.484375 2.65625 -6.859375 C 2.070312 -6.242188 1.78125 -5.382812 1.78125 -4.28125 C 1.78125 -3.125 2.0625 -2.242188 2.625 -1.640625 C 3.195312 -1.046875 4.03125 -0.75 5.125 -0.75 C 5.71875 -0.75 6.296875 -0.820312 6.859375 -0.96875 L 6.859375 -3.59375 L 4.953125 -3.59375 Z M 4.953125 -4.484375 "/></g></g></g><g fill="#737373" fill-opacity="1"><g transform="translate(221.268468, 271.436641)"><g><path d="M 5.953125 0 L 1.171875 0 L 1.171875 -8.5625 L 5.953125 -8.5625 L 5.953125 -7.6875 L 2.171875 -7.6875 L 2.171875 -4.921875 L 5.71875 -4.921875 L 5.71875 -4.046875 L 2.171875 -4.046875 L 2.171875 -0.890625 L 5.953125 -0.890625 Z M 5.953125 0 "/></g></g></g><g fill="#737373" fill-opacity="1"><g transform="translate(231.362293, 271.436641)"><g><path d="M 3.8125 0 L 2.8125 0 L 2.8125 -7.6875 L 0.109375 -7.6875 L 0.109375 -8.5625 L 6.53125 -8.5625 L 6.53125 -7.6875 L 3.8125 -7.6875 Z M 3.8125 0 "/></g></g></g><g fill="#737373" fill-opacity="1"><g transform="translate(241.420963, 271.436641)"><g><path d="M 1.171875 0 L 1.171875 -8.5625 L 2.171875 -8.5625 L 2.171875 0 Z M 1.171875 0 "/></g></g></g><g fill="#737373" fill-opacity="1"><g transform="translate(248.186664, 271.436641)"><g><path d="M 7.875 0 L 6.734375 0 L 2.046875 -7.1875 L 2 -7.1875 C 2.0625 -6.34375 2.09375 -5.570312 2.09375 -4.875 L 2.09375 0 L 1.171875 0 L 1.171875 -8.5625 L 2.296875 -8.5625 L 6.96875 -1.40625 L 7.015625 -1.40625 C 7.015625 -1.507812 7 -1.847656 6.96875 -2.421875 C 6.9375 -2.992188 6.925781 -3.40625 6.9375 -3.65625 L 6.9375 -8.5625 L 7.875 -8.5625 Z M 7.875 0 "/></g></g></g><g fill="#737373" fill-opacity="1"><g transform="translate(260.653536, 271.436641)"><g><path d="M 4.953125 -4.484375 L 7.859375 -4.484375 L 7.859375 -0.328125 C 7.398438 -0.179688 6.9375 -0.0703125 6.46875 0 C 6 0.0820312 5.457031 0.125 4.84375 0.125 C 3.550781 0.125 2.539062 -0.257812 1.8125 -1.03125 C 1.09375 -1.8125 0.734375 -2.894531 0.734375 -4.28125 C 0.734375 -5.175781 0.910156 -5.957031 1.265625 -6.625 C 1.628906 -7.289062 2.144531 -7.800781 2.8125 -8.15625 C 3.488281 -8.507812 4.273438 -8.6875 5.171875 -8.6875 C 6.085938 -8.6875 6.941406 -8.519531 7.734375 -8.1875 L 7.34375 -7.3125 C 6.570312 -7.632812 5.828125 -7.796875 5.109375 -7.796875 C 4.066406 -7.796875 3.25 -7.484375 2.65625 -6.859375 C 2.070312 -6.242188 1.78125 -5.382812 1.78125 -4.28125 C 1.78125 -3.125 2.0625 -2.242188 2.625 -1.640625 C 3.195312 -1.046875 4.03125 -0.75 5.125 -0.75 C 5.71875 -0.75 6.296875 -0.820312 6.859375 -0.96875 L 6.859375 -3.59375 L 4.953125 -3.59375 Z M 4.953125 -4.484375 "/></g></g></g></svg>